<?xml version="1.0" encoding="UTF-8"?>
<svg version="1.1" xmlns="http://www.w3.org/2000/svg" width="1486" height="266">
<path d="M0 0 C490.38 0 980.76 0 1486 0 C1486 87.78 1486 175.56 1486 266 C995.62 266 505.24 266 0 266 C0 178.22 0 90.44 0 0 Z " fill="#111111" transform="translate(0,0)"/>
<path d="M0 0 C14.19 0 28.38 0 43 0 C47.49945097 11.24862743 47.49945097 11.24862743 49.02026367 15.60595703 C49.36617554 16.59334366 49.7120874 17.58073029 50.06848145 18.59803772 C50.43131226 19.6407634 50.79414307 20.68348907 51.16796875 21.7578125 C51.55988403 22.87800278 51.95179932 23.99819305 52.35559082 25.15232849 C53.19676326 27.55712864 54.03697627 29.96226457 54.87631226 32.3677063 C56.89255905 38.14539254 58.91500988 43.92090406 60.93741798 49.69643593 C61.62678693 51.6652597 62.31592008 53.63416591 63.00505066 55.60307312 C67.20488032 67.59935855 71.43990296 79.58305319 75.6875 91.5625 C76.37063084 93.49055091 77.05373635 95.41861079 77.73681641 97.34667969 C81.02089242 106.61349526 84.31152584 115.87794758 87.61021423 125.13957214 C89.21034215 129.63355138 90.80814521 134.12835541 92.40567017 138.6232605 C93.1722053 140.77791842 93.9399115 142.93216012 94.70883179 145.08596802 C95.76831816 148.05372177 96.82402249 151.02279524 97.87890625 153.9921875 C98.19673065 154.87924881 98.51455505 155.76631012 98.8420105 156.68025208 C99.12819244 157.48814682 99.41437439 158.29604156 99.70922852 159.12841797 C99.95995621 159.83191376 100.2106839 160.53540955 100.4690094 161.26022339 C101 163 101 163 101 165 C88.46 165 75.92 165 63 165 C61.27217484 159.25397678 59.54570247 153.50763027 57.82568359 147.75927734 C57.29271154 145.97818622 56.75922059 144.19725024 56.22509766 142.41650391 C55.52218008 140.07018461 54.82300399 137.722785 54.125 135.375 C53.91012939 134.65965088 53.69525879 133.94430176 53.47387695 133.20727539 C52 128.22921184 52 128.22921184 52 126 C32.2 126.33 12.4 126.66 -8 127 C-13.20453288 143.2991821 -13.20453288 143.2991821 -18.2734375 159.63671875 C-18.82534716 161.43190878 -19.40608826 163.21826478 -20 165 C-32.21 165 -44.42 165 -57 165 C-56.33609261 160.35264826 -55.85096722 157.05733568 -54.35205078 152.82983398 C-54.01229218 151.86136032 -53.67253357 150.89288666 -53.32247925 149.89506531 C-52.76453171 148.33632439 -52.76453171 148.33632439 -52.1953125 146.74609375 C-51.8045755 145.63792801 -51.4138385 144.52976227 -51.01126099 143.38801575 C-49.72189677 139.7356707 -48.42344771 136.08662457 -47.125 132.4375 C-46.2170391 129.8732104 -45.31110653 127.30820597 -44.40527344 124.74316406 C-42.76775821 120.10816924 -41.12798883 115.47398377 -39.4852829 110.84082603 C-36.64588761 102.83222881 -33.82208499 94.81824725 -31.0078125 86.80078125 C-23.68494876 65.94154343 -16.33991457 45.09022144 -8.94274902 24.25720215 C-8.23639644 22.26783482 -7.53041717 20.2783349 -6.8248291 18.28869629 C-5.86115846 15.57218095 -4.89573977 12.85629415 -3.9296875 10.140625 C-3.64525787 9.33826416 -3.36082825 8.53590332 -3.06777954 7.70922852 C-1.11496648 2.22993296 -1.11496648 2.22993296 0 0 Z " fill="#FDFDFD" transform="translate(1318,39)"/>
<path d="M0 0 C1.23234375 -0.00322266 2.4646875 -0.00644531 3.734375 -0.00976562 C21.97731838 0.09674838 39.58186948 4.74166977 53.125 17.5625 C60.28461202 25.10159675 66.375 34.64371505 66.375 45.3125 C62.6046724 46.10658753 58.83364677 46.89731268 55.0625 47.6875 C54.00998047 47.90921875 52.95746094 48.1309375 51.87304688 48.359375 C45.05802578 49.78528711 38.2320898 51.10488698 31.375 52.3125 C31.15585937 51.52746094 30.93671875 50.74242187 30.7109375 49.93359375 C28.38682669 42.23379574 26.20738443 36.62981308 19.46875 32.00390625 C10.53454123 27.45815566 -2.48702297 27.57908982 -12 30.265625 C-17.3546778 32.78359849 -20.95041089 35.96332178 -23.625 41.3125 C-24.25494407 46.31605576 -24.26105392 50.15005662 -21.8125 54.625 C-12.57530804 63.68357223 3.00678987 64.9487314 15.16015625 67.203125 C33.78576605 70.74035537 50.69622693 76.46708132 62.375 92.3125 C69.39419727 103.56515062 70.06346037 116.77707065 67.25 129.5625 C63.59363223 142.21523314 56.75578709 151.22778912 45.5625 158.0625 C25.01977012 169.36357571 -2.04874135 170.82125164 -24.64550781 164.90332031 C-35.25199661 161.73759475 -44.58537882 157.01954692 -52.625 149.3125 C-53.34171875 148.63574219 -54.0584375 147.95898438 -54.796875 147.26171875 C-61.66029444 140.20478185 -68.48048693 128.73196319 -68.67724609 118.63012695 C-68.66000488 117.86531006 -68.64276367 117.10049316 -68.625 116.3125 C-64.78482928 115.47179116 -60.94366241 114.63580415 -57.1015625 113.80395508 C-55.16093015 113.38279759 -53.22108149 112.95803411 -51.28125 112.53320312 C-45.07108532 111.19090191 -38.949625 109.94336537 -32.625 109.3125 C-32.27888672 110.81490234 -32.27888672 110.81490234 -31.92578125 112.34765625 C-29.31849591 124.10324522 -29.31849591 124.10324522 -21.515625 132.76171875 C-10.20241972 139.38639768 3.02563565 140.28696622 15.796875 137.58984375 C21.2637952 135.54389028 25.33110164 132.57403994 28.4765625 127.5546875 C30.79410562 121.77090598 30.26115834 114.47010293 27.9375 108.8125 C18.59932114 99.7020816 5.21114962 98.2179745 -7.1237793 95.86621094 C-23.55166304 92.71861527 -43.15098015 88.66083842 -53.625 74.3125 C-61.05780778 61.32197914 -62.65466349 48.52455672 -59.9765625 33.73046875 C-55.3389901 19.8772076 -44.18280602 11.30141135 -31.67578125 4.890625 C-21.44799771 0.53599511 -10.97868212 -0.14445634 0 0 Z " fill="#FDFDFD" transform="translate(949.625,39.6875)"/>
<path d="M0 0 C0.99 0.495 0.99 0.495 2 1 C1.36892334 2.77262207 1.36892334 2.77262207 0.72509766 4.58105469 C-7.89800772 28.81458381 -16.45079353 53.07155243 -24.875 77.375 C-25.26258484 78.49096558 -25.65016968 79.60693115 -26.04949951 80.75671387 C-27.15771155 83.94899183 -28.26295045 87.14228267 -29.3671875 90.3359375 C-29.69150757 91.2695108 -30.01582764 92.20308411 -30.34997559 93.16494751 C-30.65584595 94.05201385 -30.96171631 94.9390802 -31.27685547 95.85302734 C-31.66960159 96.98821304 -31.66960159 96.98821304 -32.07028198 98.14633179 C-33.45815919 102.40626974 -34.71258929 106.70863097 -36 111 C-18.18 111 -0.36 111 18 111 C18 111.66 18 112.32 18 113 C16.65429687 114.32226563 16.65429687 114.32226563 14.71875 115.90625 C11.14391798 118.94611596 7.77161856 122.13841825 4.46875 125.46875 C3.9843042 125.95649902 3.4998584 126.44424805 3.00073242 126.94677734 C1.49849478 128.46256197 -0.00119101 129.98082544 -1.5 131.5 C-12.53934333 142.68934411 -12.53934333 142.68934411 -16.90625 146.40625 C-22.94768775 151.56780656 -28.41873734 157.35248153 -34 163 C-46.63329179 175.78326304 -46.63329179 175.78326304 -52.86328125 181.0859375 C-58.13695071 185.81006553 -63.02485895 190.96579848 -68 196 C-80.63402461 208.78400456 -80.63402461 208.78400456 -84.96875 212.46875 C-91.17433586 217.75065327 -96.77500977 223.70979426 -102.5 229.5 C-116.18470743 243.34059507 -116.18470743 243.34059507 -122.37695312 248.60400391 C-124.70040606 250.60242506 -126.85073884 252.75465663 -129 254.9375 C-130.1446875 256.09572266 -130.1446875 256.09572266 -131.3125 257.27734375 C-132.1478125 258.13005859 -132.1478125 258.13005859 -133 259 C-134 257 -134 257 -133.41290283 254.89404297 C-133.07716248 254.01893066 -132.74142212 253.14381836 -132.39550781 252.2421875 C-131.82570946 250.74008728 -131.82570946 250.74008728 -131.24440002 249.2076416 C-130.81827927 248.10786987 -130.39215851 247.00809814 -129.953125 245.875 C-129.2950309 244.14944885 -129.2950309 244.14944885 -128.62364197 242.38903809 C-127.42261397 239.24390417 -126.21491624 236.10148586 -125.00426865 232.96005249 C-123.74775898 229.69486983 -122.49976038 226.42643976 -121.2512207 223.15820312 C-119.45383497 218.4552953 -117.6538688 213.75339092 -115.85066319 209.05271149 C-112.66214717 200.73992744 -109.49515045 192.41919866 -106.33984375 184.09375 C-105.89982025 182.93302979 -105.45979675 181.77230957 -105.00643921 180.57641602 C-103.73330517 177.21766914 -102.46039478 173.85883756 -101.1875 170.5 C-99.6200598 166.36398534 -98.05104734 162.22857385 -96.48046875 158.09375 C-96.13982895 157.19442749 -95.79918915 156.29510498 -95.44822693 155.36853027 C-95.13813187 154.55275513 -94.8280368 153.73697998 -94.50854492 152.89648438 C-94.23958908 152.18762085 -93.97063324 151.47875732 -93.69352722 150.74841309 C-93 149 -93 149 -92 147 C-110.15 147 -128.3 147 -147 147 C-143.26871948 142.6468394 -139.68645916 138.55879509 -135.6640625 134.53125 C-134.93949356 133.80524597 -134.93949356 133.80524597 -134.20028687 133.0645752 C-133.18813665 132.05175118 -132.17474955 131.0401618 -131.16015625 130.02978516 C-129.63165942 128.50663612 -128.10856762 126.97822998 -126.5859375 125.44921875 C-125.59146614 124.45540854 -124.59668444 123.46190877 -123.6015625 122.46875 C-122.71807129 121.58638672 -121.83458008 120.70402344 -120.92431641 119.79492188 C-118.854018 117.77391975 -116.70729 115.88193769 -114.50509644 114.00608826 C-109.09520131 109.28392701 -104.05943543 104.19163233 -98.99414062 99.10766602 C-97.90944562 98.02268839 -96.82452928 96.937932 -95.7394104 95.8533783 C-92.81624725 92.9305002 -89.89616167 90.00456537 -86.97664833 87.07804227 C-83.91685979 84.01197129 -80.85420913 80.94876188 -77.79187012 77.88523865 C-72.00315643 72.093426 -66.21699499 66.29907063 -60.43176222 60.50378126 C-53.84118676 53.90199995 -47.24774663 47.30308284 -40.65407276 40.70439637 C-27.09954115 27.13943288 -13.54858377 13.57090402 0 0 Z " fill="#FDFDFD" transform="translate(189,0)"/>
<path d="M0 0 C11.09106032 8.49280493 17.90635153 19.1864166 21.234375 32.7109375 C21.605625 33.9071875 21.976875 35.1034375 22.359375 36.3359375 C24.50929571 44.62848879 24.234375 51.97114407 24.234375 60.7109375 C-4.145625 60.7109375 -32.525625 60.7109375 -61.765625 60.7109375 C-59.11448241 75.21348325 -59.11448241 75.21348325 -51.765625 86.7109375 C-50.99025391 87.52498047 -50.99025391 87.52498047 -50.19921875 88.35546875 C-44.21910443 93.2118032 -36.0519521 92.64785638 -28.75244141 91.98876953 C-22.94317357 91.17641431 -18.65432302 88.97183178 -14.90234375 84.48046875 C-13.39439525 82.2743293 -12.06032512 80.04664649 -10.765625 77.7109375 C-9.775625 76.2259375 -9.775625 76.2259375 -8.765625 74.7109375 C1.43042331 76.24607286 11.29940951 79.01356863 21.234375 81.7109375 C19.54642247 91.87418854 12.72938839 100.44180073 4.73046875 106.65625 C-11.60012983 117.63839926 -30.68535553 120.03748583 -49.97021484 117.41064453 C-53.77547108 116.63051234 -57.2424709 115.32195241 -60.765625 113.7109375 C-62.18488281 113.07478516 -62.18488281 113.07478516 -63.6328125 112.42578125 C-78.73854846 104.91475741 -88.83051662 92.27451892 -94.765625 76.7109375 C-97.15814438 69.36190185 -97.13274558 62.20980815 -97.140625 54.5234375 C-97.16511719 53.28529297 -97.18960937 52.04714844 -97.21484375 50.77148438 C-97.26917707 33.48443162 -90.9185591 18.77912997 -78.81640625 6.51171875 C-70.54372784 -1.37556151 -60.76018345 -5.6449907 -49.765625 -8.2890625 C-49.01925781 -8.47855469 -48.27289062 -8.66804688 -47.50390625 -8.86328125 C-31.01434721 -11.42727831 -14.100162 -9.32124803 0 0 Z " fill="#FCFCFC" transform="translate(1127.765625,89.2890625)"/>
<path d="M0 0 C0.80566406 0.31324219 1.61132812 0.62648438 2.44140625 0.94921875 C6.98347377 2.84237045 11.03025871 5.0658434 15 8 C15.82951172 8.59361328 15.82951172 8.59361328 16.67578125 9.19921875 C22.22840863 13.49604127 25.5768168 18.94096573 29 25 C29.391875 25.68578125 29.78375 26.3715625 30.1875 27.078125 C32.67417252 32.01261577 33.96927721 37.27782701 35.25 42.625 C35.4255542 43.32246338 35.6011084 44.01992676 35.78198242 44.73852539 C37.49628751 52.44986947 37 58.61304664 37 67 C8.62 67 -19.76 67 -49 67 C-45.76203367 83.13040041 -45.76203367 83.13040041 -35.875 95.5625 C-28.55947245 99.22026378 -19.1142038 99.19571526 -11.2265625 97.3515625 C-3.53693263 94.28095945 0.7364582 88.43362299 4 81 C11.00509246 81.56759211 17.3410589 83.04653541 24.0625 85.0625 C25.02349609 85.34416016 25.98449219 85.62582031 26.97460938 85.91601562 C29.31846429 86.60401284 31.66007993 87.2987601 34 88 C32.74191847 97.97788798 26.60179615 105.70370015 19 112 C2.64658984 123.86533876 -17.37221354 126.35423299 -37 123.3125 C-51.02459678 120.11813006 -64.89775304 112.15337044 -73 100 C-74.50215661 97.43766748 -75.89427247 94.82993058 -77.25 92.1875 C-77.57967773 91.54804443 -77.90935547 90.90858887 -78.24902344 90.24975586 C-82.82915718 80.85626253 -84.54466119 71.65644885 -84.4375 61.25 C-84.42920166 60.20158936 -84.42090332 59.15317871 -84.41235352 58.07299805 C-84.04200493 40.9565673 -78.40425078 25.75620695 -66.45703125 13.21875 C-62.33703106 9.49830468 -57.83155498 6.70104867 -53 4 C-52.33355469 3.60039063 -51.66710937 3.20078125 -50.98046875 2.7890625 C-36.75867926 -5.17513961 -15.01807446 -6.03290171 0 0 Z " fill="#FCFCFC" transform="translate(788,83)"/>
<path d="M0 0 C49.5 0 99 0 150 0 C150 9.9 150 19.8 150 30 C130.86 30 111.72 30 92 30 C92 73.89 92 117.78 92 163 C80.45 163 68.9 163 57 163 C57 119.11 57 75.22 57 30 C38.19 30 19.38 30 0 30 C0 20.1 0 10.2 0 0 Z " fill="#FAFAFA" transform="translate(302,42)"/>
<path d="M0 0 C10.89 0 21.78 0 33 0 C33.0093457 2.29477295 33.01869141 4.5895459 33.02832031 6.95385742 C33.06226285 14.58148237 33.11790633 22.20884168 33.18390274 29.83625317 C33.22321788 34.45554603 33.25548393 39.07465281 33.27099609 43.6940918 C33.28626877 48.16177488 33.32089911 52.62894583 33.36830902 57.09639931 C33.38301438 58.79096305 33.3910347 60.48559995 33.39188385 62.18022728 C33.12760063 78.64478595 33.12760063 78.64478595 39.8081665 93.14323425 C45.0622492 97.95536384 49.97147496 98.35289158 56.921875 98.27734375 C62.90034549 97.73867445 66.51969574 95.44666098 70.75 91.3125 C76.82248254 83.18850309 78.0828369 74.55225768 78.20532227 64.59594727 C78.21522186 63.892668 78.22512146 63.18938873 78.23532104 62.46479797 C78.26663411 60.16536703 78.29157252 57.8659155 78.31640625 55.56640625 C78.33700194 53.96214799 78.35799906 52.35789484 78.37937927 50.75364685 C78.4343301 46.55010132 78.48385733 42.34650903 78.53222656 38.1428833 C78.59151778 33.08914373 78.6575959 28.03548881 78.72252655 22.98181915 C78.82019603 15.32126488 78.90928427 7.66065399 79 0 C90.22 0 101.44 0 113 0 C113 40.26 113 80.52 113 122 C102.11 122 91.22 122 80 122 C79.67 115.73 79.34 109.46 79 103 C78.01 104.340625 77.02 105.68125 76 107.0625 C69.26528979 115.60833746 62.02618471 121.92104059 51 124 C40.70548366 125.1226697 29.02113683 125.75780893 20 120 C19.21625 119.51402344 18.4325 119.02804688 17.625 118.52734375 C8.48131858 112.16586802 3.92941612 102.5308754 1 92 C0.09365943 86.74517949 -0.13832657 81.71181274 -0.11352539 76.40258789 C-0.11367142 75.57251221 -0.11381744 74.74243652 -0.1139679 73.88720703 C-0.11327574 71.16566277 -0.1055162 68.44418844 -0.09765625 65.72265625 C-0.09578959 63.82694028 -0.09436686 61.93122383 -0.09336853 60.0355072 C-0.08956287 55.06251681 -0.07974935 50.08955593 -0.06866455 45.11657715 C-0.05840838 40.03540445 -0.05386192 34.95422695 -0.04882812 29.87304688 C-0.03812523 19.91534957 -0.02054434 9.95768187 0 0 Z " fill="#FCFCFC" transform="translate(570,83)"/>
<path d="M0 0 C12.21 0 24.42 0 37 0 C39.44782835 6.11957087 41.75228546 12.01028611 43.64135742 18.27954102 C43.87442093 19.04017349 44.10748444 19.80080597 44.34761047 20.58448792 C44.84600428 22.2130806 45.34244425 23.84227233 45.83705711 25.47201729 C46.61924137 28.04928654 47.40668053 30.62490036 48.19538879 33.20018005 C49.58109541 37.72777308 50.96224889 42.25673952 52.34185791 46.78619385 C54.55952485 54.06696008 56.7809124 61.34657689 59.00850868 68.62431145 C59.78510594 71.1656757 60.55772908 73.70822562 61.3301239 76.25086975 C61.80218686 77.7956354 62.27441189 79.34035153 62.74682617 80.88500977 C62.96136444 81.59506165 63.17590271 82.30511353 63.39694214 83.03668213 C64.21210167 86.28116587 64.21210167 86.28116587 66 89 C66.29132813 88.05382812 66.58265625 87.10765625 66.8828125 86.1328125 C68.91573413 79.56432908 70.97995924 73.01296102 73.19311523 66.50268555 C75.9911038 58.2702305 78.47472658 49.98619842 80.81787109 41.61328125 C82.60665474 35.26046013 84.62835264 29.03634068 86.76953125 22.79296875 C88.49128372 17.48559843 89.95435297 12.11513702 91.38891602 6.72387695 C92.90007933 1.09992067 92.90007933 1.09992067 94 0 C96.73894085 -0.08858646 99.4525327 -0.11523479 102.19140625 -0.09765625 C103.01124496 -0.0962413 103.83108368 -0.09482635 104.67576599 -0.09336853 C107.30471382 -0.08775289 109.93357773 -0.07519779 112.5625 -0.0625 C114.34049357 -0.05748701 116.11848846 -0.05292376 117.89648438 -0.04882812 C122.26435545 -0.03777839 126.63216348 -0.02050331 131 0 C128.93345595 7.25690207 126.48640846 14.30826805 123.81640625 21.36328125 C123.40831223 22.44964371 123.0002182 23.53600616 122.57975769 24.6552887 C121.24389073 28.20891318 119.90328289 31.7607277 118.5625 35.3125 C117.6309262 37.78717477 116.69961478 40.26194832 115.76855469 42.73681641 C113.58733012 48.53313703 111.40253952 54.32810682 109.21649742 60.122612 C107.25759716 65.315602 105.30172083 70.50972606 103.34678936 75.70421124 C100.81614628 82.42841798 98.28326618 89.15178107 95.75 95.875 C95.09428513 97.61615585 95.09428513 97.61615585 94.42532349 99.39248657 C93.19615358 102.65532057 91.96551017 105.91759461 90.734375 109.1796875 C90.36869919 110.15096085 90.00302338 111.12223419 89.62626648 112.12294006 C89.29294815 113.00517746 88.95962982 113.88741486 88.61621094 114.79638672 C88.326474 115.56457733 88.03673706 116.33276794 87.73822021 117.12423706 C87 119 87 119 86 121 C72.47 121 58.94 121 45 121 C42.916875 115.43125 40.83375 109.8625 38.6875 104.125 C32.58586541 87.83730143 26.43218278 71.5697843 20.25 55.3125 C19.84618103 54.25017151 19.44236206 53.18784302 19.02630615 52.09332275 C15.42347839 42.61550438 11.82021576 33.13787119 8.19650269 23.66801453 C7.13747238 20.89982011 6.08059713 18.13080597 5.02404785 15.36166382 C4.3332815 13.55437184 3.63886481 11.74847637 2.94433594 9.94262695 C2.54633789 8.89937256 2.14833984 7.85611816 1.73828125 6.78125 C1.39837158 5.89501953 1.05846191 5.00878906 0.70825195 4.09570312 C0 2 0 2 0 0 Z " fill="#FDFDFD" transform="translate(1161,83)"/>
<path d="M0 0 C24.07592375 15.5351216 39.90761658 42.03512391 46.2734375 69.57421875 C46.51320312 70.70472656 46.75296875 71.83523437 47 73 C47.1750708 73.73621582 47.3501416 74.47243164 47.53051758 75.23095703 C48.12431605 78.73322549 48.20010456 82.18834037 48.23828125 85.73046875 C48.25317596 86.84563873 48.25317596 86.84563873 48.26837158 87.9833374 C48.60238827 119.48184994 48.60238827 119.48184994 44 132 C43.69384766 132.8348291 43.38769531 133.6696582 43.07226562 134.52978516 C36.47253233 151.96250924 27.41508185 166.19060896 15 180 C14.43023437 180.65355469 13.86046875 181.30710938 13.2734375 181.98046875 C-5.52167035 202.26954671 -35.51632532 214.75031244 -62.8125 216.14355469 C-76.49172672 216.598029 -89.88103038 216.27129243 -103 212 C-101.50064231 208.48288966 -99.46765574 206.22931524 -96.75 203.5625 C-96.00234375 202.82128906 -95.2546875 202.08007812 -94.484375 201.31640625 C-93.66453125 200.55199219 -92.8446875 199.78757813 -92 199 C-90.77990234 197.62328125 -90.77990234 197.62328125 -89.53515625 196.21875 C-84.81222933 192.34888584 -78.41775609 193.66957519 -72.6875 193.9375 C-61.39016445 194.20103916 -51.71796174 193.53785534 -41 190 C-39.87078125 189.63777344 -38.7415625 189.27554688 -37.578125 188.90234375 C-25.13901536 184.51294501 -13.8385407 177.76767913 -4 169 C-2.86304688 167.98679688 -2.86304688 167.98679688 -1.703125 166.953125 C11.5726651 154.40979229 20.62992546 137.6459882 25 120 C25.17587646 119.30519531 25.35175293 118.61039062 25.53295898 117.89453125 C31.6485447 91.20833903 25.98132682 65.43998043 11.90625 42.53515625 C6.52891544 34.34251428 0.11687554 27.68336028 -7 21 C-5.180206 13.74839665 -2.93841629 6.87619244 0 0 Z " fill="#FBFBFB" transform="translate(195,33)"/>
<path d="M0 0 C-1.33616655 1.61746477 -2.68942261 3.22221953 -4.09765625 4.77734375 C-6.08230236 6.99717066 -6.08230236 6.99717066 -7.74609375 9.69140625 C-10.88352122 13.86080419 -13.36413749 16.61558272 -18.59472656 17.37841797 C-22.83031383 17.54770098 -27.02678289 17.41099514 -31.26074219 17.24365234 C-47.54845753 16.6050591 -61.56419327 20.67037674 -76 28 C-77.03382812 28.51175781 -78.06765625 29.02351563 -79.1328125 29.55078125 C-99.00262388 40.22749323 -111.87002577 56.82381533 -121 77 C-121.42152344 77.89460938 -121.84304687 78.78921875 -122.27734375 79.7109375 C-132.04288727 101.8953043 -130.15881637 129.6480899 -121.69140625 151.859375 C-115.7967733 166.63163095 -106.65199639 179.22678546 -95 190 C-97.19037174 196.72045875 -99.55765661 203.36724003 -102 210 C-120.9560471 201.64722126 -134.47517616 177.72901959 -142.13183594 159.28564453 C-144.75484328 152.37996547 -146.4465031 145.20922253 -148 138 C-148.24621094 136.88238281 -148.49242187 135.76476562 -148.74609375 134.61328125 C-154.18293252 105.32934275 -147.14357682 74.63232471 -131.1875 49.75 C-112.55253979 23.18062314 -87.50358612 5.72511225 -56 -2 C-55.03449219 -2.24621094 -54.06898437 -2.49242187 -53.07421875 -2.74609375 C-36.69943429 -6.18219179 -15.77129582 -5.64446377 0 0 Z " fill="#FBFBFB" transform="translate(155,14)"/>
<path d="M0 0 C11.55 0 23.1 0 35 0 C35 54.45 35 108.9 35 165 C23.45 165 11.9 165 0 165 C0 110.55 0 56.1 0 0 Z " fill="#FDFDFD" transform="translate(1440,40)"/>
<path d="M0 0 C-0.27795291 4.08438847 -0.57472795 8.1671965 -0.875 12.25 C-0.95363281 13.40886719 -1.03226563 14.56773438 -1.11328125 15.76171875 C-1.23896484 17.43427734 -1.23896484 17.43427734 -1.3671875 19.140625 C-1.44050293 20.16704102 -1.51381836 21.19345703 -1.58935547 22.25097656 C-1.9875667 24.9167664 -2.64384205 26.69308362 -4 29 C-5.01513672 28.76216797 -5.01513672 28.76216797 -6.05078125 28.51953125 C-16.82304285 26.62190106 -27.04690498 27.25813661 -36.2109375 33.5078125 C-44.04014054 39.76535396 -47.98679884 48.32415711 -50 58 C-50.44453133 63.06262949 -50.4891514 68.11662208 -50.51171875 73.1953125 C-50.528599 74.63835137 -50.54675364 76.08137585 -50.56611633 77.52438354 C-50.61326008 81.2889353 -50.64329814 85.05342865 -50.66955566 88.81817627 C-50.70483213 93.35312197 -50.76174155 97.88784347 -50.81494904 102.42260742 C-50.89304442 109.28170819 -50.94396484 116.14052401 -51 123 C-62.22 123 -73.44 123 -85 123 C-85 82.74 -85 42.48 -85 1 C-74.11 1 -63.22 1 -52 1 C-51.505 9.415 -51.505 9.415 -51 18 C-49.906875 16.494375 -48.81375 14.98875 -47.6875 13.4375 C-35.94577591 -1.18270672 -17.68443166 -5.69806463 0 0 Z " fill="#FBFBFB" transform="translate(554,82)"/>
<path d="M0 0 C2.52946746 2.52946746 2.82335671 4.42040879 3.75 7.875 C4.2759375 9.77958984 4.2759375 9.77958984 4.8125 11.72265625 C5.00328125 12.41504395 5.1940625 13.10743164 5.390625 13.82080078 C6.46551135 17.6647253 7.60521107 21.48890498 8.75 25.3125 C8.99685547 26.13911133 9.24371094 26.96572266 9.49804688 27.81738281 C10.9762799 32.72578 12.51138039 37.61242509 14.09375 42.48828125 C14.62983887 44.14186646 14.62983887 44.14186646 15.17675781 45.82885742 C15.8739486 47.97007054 16.57614234 50.10966347 17.28417969 52.24731445 C17.76999512 53.73751099 17.76999512 53.73751099 18.265625 55.2578125 C18.55211914 56.1255127 18.83861328 56.99321289 19.13378906 57.88720703 C20.33324993 62.19755823 21.12255103 66.61275517 22 71 C8.14 71 -5.72 71 -20 71 C-19.30287148 66.12010039 -18.59395219 62.23424983 -17.14453125 57.640625 C-16.58608521 55.85724731 -16.58608521 55.85724731 -16.01635742 54.0378418 C-15.61908447 52.787854 -15.22181152 51.53786621 -14.8125 50.25 C-14.40221807 48.94393346 -13.99247303 47.63769815 -13.58325195 46.33129883 C-11.81380117 40.69188881 -10.02290164 35.05950096 -8.2109375 29.43359375 C-5.08220819 19.69944526 -2.33453795 9.95611772 0 0 Z " fill="#151515" transform="translate(1339,65)"/>
<path d="M0 0 C6.07412868 2.77065519 9.71927109 7.6792838 13.25390625 13.1640625 C14.44140625 16.3515625 14.44140625 16.3515625 15.44140625 26.3515625 C-1.05859375 26.3515625 -17.55859375 26.3515625 -34.55859375 26.3515625 C-33.5619995 17.38221429 -32.12561519 10.68133607 -25.453125 4.35546875 C-17.85414998 -1.41643031 -9.31030607 -2.35955849 0 0 Z " fill="#131313" transform="translate(1101.55859375,104.6484375)"/>
<path d="M0 0 C6.66315182 4.07510358 10.85962579 9.84044117 13.15234375 17.2265625 C13.5625 19.5 13.5625 19.5 13.5625 25.5 C-2.9375 25.5 -19.4375 25.5 -36.4375 25.5 C-35.04324016 14.34592127 -32.07590073 8.24963339 -23.5234375 0.99609375 C-17.48349437 -3.33592539 -6.63669376 -2.96560922 0 0 Z " fill="#121212" transform="translate(776.4375,105.5)"/>
</svg>
