<svg version="1.1" viewBox="32.94179104477612 75.7528 26.507462686567166 27.208" xmlns:xlink="http://www.w3.org/1999/xlink" xmlns="http://www.w3.org/2000/svg" style="max-height: 500px" width="26.507462686567166" height="27.208">
<g id="surface1">
<path d="M 49.484375 79.859375 L 46.359375 83.113281 L 46.359375 95.40625 L 47.28125 94.503906 C 47.757812 94.007812 49.539062 92.261719 51.230469 90.621094 L 54.265625 87.640625 L 48.96875 87.53125 L 50.828125 82.121094 C 51.875 79.121094 52.703125 76.675781 52.664062 76.65625 C 52.628906 76.621094 51.214844 78.074219 49.484375 79.859375 Z M 49.484375 79.859375" style="stroke:none;fill-rule:nonzero;fill:rgb(0%,0%,0%);fill-opacity:1;"/>
<path d="M 44.429688 77.796875 C 42.941406 78.074219 41.046875 78.828125 39.761719 79.710938 C 38.824219 80.355469 37.390625 81.808594 36.800781 82.710938 C 36.121094 83.742188 35.570312 84.9375 35.21875 86.113281 C 34.925781 87.089844 34.890625 87.328125 34.890625 89.261719 C 34.890625 91.046875 34.925781 91.488281 35.148438 92.296875 C 35.460938 93.4375 36.140625 94.929688 36.839844 95.976562 C 37.296875 96.675781 39.082031 98.570312 39.265625 98.570312 C 39.355469 98.570312 40 96.933594 40 96.75 C 40 96.695312 39.78125 96.4375 39.523438 96.160156 C 38.328125 94.910156 37.5 93.417969 37.039062 91.707031 C 36.691406 90.363281 36.691406 88.265625 37.039062 86.941406 C 37.921875 83.554688 40.441406 80.90625 43.675781 79.949219 C 44.320312 79.746094 44.925781 79.675781 46.101562 79.636719 L 47.703125 79.601562 L 48.4375 78.863281 C 48.84375 78.441406 49.136719 78.074219 49.082031 78.035156 C 48.769531 77.742188 45.734375 77.59375 44.429688 77.796875 Z M 44.429688 77.796875" style="stroke:none;fill-rule:nonzero;fill:rgb(0%,0%,0%);fill-opacity:1;"/>
<path d="M 52.886719 80.796875 C 52.71875 81.257812 52.59375 81.714844 52.59375 81.789062 C 52.59375 81.863281 52.792969 82.15625 53.070312 82.398438 C 54.578125 83.886719 55.660156 86.152344 55.863281 88.304688 C 56.175781 91.488281 55.148438 94.246094 52.792969 96.472656 C 50.902344 98.296875 48.785156 99.085938 46.101562 99.03125 L 44.851562 98.996094 L 44.007812 99.785156 C 43.546875 100.210938 43.199219 100.59375 43.253906 100.632812 C 43.84375 101 47.167969 101.09375 48.566406 100.796875 C 52.078125 100.007812 55.09375 97.6875 56.617188 94.578125 C 57.480469 92.8125 57.8125 91.304688 57.8125 89.207031 C 57.792969 86.738281 57.242188 84.863281 55.957031 82.914062 C 55.332031 81.9375 54.191406 80.667969 53.53125 80.1875 L 53.199219 79.949219 Z M 52.886719 80.796875" style="stroke:none;fill-rule:nonzero;fill:rgb(0%,0%,0%);fill-opacity:1;"/>
<path d="M 124.355469 80.722656 C 121.949219 81.273438 120.515625 82.800781 120.367188 84.972656 C 120.257812 87.054688 121.230469 88.488281 123.273438 89.261719 C 123.640625 89.40625 124.761719 89.703125 125.773438 89.921875 C 128.253906 90.4375 128.933594 90.824219 129.171875 91.761719 C 129.394531 92.628906 128.96875 93.457031 128.050781 93.953125 C 127.5 94.246094 125.789062 94.300781 124.945312 94.046875 C 123.988281 93.769531 123.050781 92.535156 123.050781 91.542969 C 123.050781 91.25 123.21875 91.230469 121.285156 91.632812 L 119.707031 91.964844 L 119.722656 92.40625 C 119.742188 93.125 120.496094 94.523438 121.195312 95.167969 C 122.519531 96.363281 124.171875 96.914062 126.46875 96.914062 C 128.769531 96.914062 130.332031 96.417969 131.488281 95.277344 C 133.105469 93.660156 133.234375 90.734375 131.765625 89.09375 C 130.828125 88.066406 130.019531 87.734375 126.617188 86.980469 C 125.054688 86.628906 124.246094 86.226562 123.96875 85.65625 C 123.546875 84.789062 124.097656 83.757812 125.148438 83.445312 C 125.71875 83.261719 127.078125 83.242188 127.683594 83.429688 C 128.289062 83.59375 128.878906 84.21875 129.117188 84.953125 C 129.226562 85.285156 129.375 85.5625 129.449219 85.5625 C 129.523438 85.5625 130.277344 85.414062 131.121094 85.230469 L 132.664062 84.9375 L 132.574219 84.496094 C 132.058594 82.636719 130.40625 81.183594 128.253906 80.722656 C 127.28125 80.519531 125.347656 80.519531 124.355469 80.722656 Z M 124.355469 80.722656" style="stroke:none;fill-rule:nonzero;fill:rgb(0%,0%,0%);fill-opacity:1;"/>
<path d="M 161.726562 81.054688 C 161.636719 81.332031 160.386719 84.9375 158.953125 89.058594 C 157.519531 93.179688 156.359375 96.585938 156.359375 96.621094 C 156.359375 96.640625 157.152344 96.640625 158.125 96.640625 L 159.90625 96.601562 L 160.476562 94.742188 L 161.03125 92.902344 L 163.96875 92.867188 L 166.910156 92.847656 L 167.464844 94.742188 L 168.050781 96.65625 L 171.636719 96.65625 L 171.15625 95.316406 C 170.902344 94.578125 169.652344 90.972656 168.382812 87.292969 L 166.046875 80.613281 L 163.96875 80.574219 L 161.910156 80.558594 Z M 164.117188 83.335938 C 164.117188 83.410156 164.558594 84.9375 165.09375 86.703125 L 166.085938 89.921875 L 165.035156 89.960938 C 164.46875 89.960938 163.53125 89.960938 162.960938 89.960938 L 161.910156 89.921875 L 162.664062 87.476562 C 163.070312 86.113281 163.511719 84.585938 163.65625 84.054688 C 163.804688 83.5 163.96875 83.097656 164.007812 83.132812 C 164.0625 83.171875 164.117188 83.261719 164.117188 83.335938 Z M 164.117188 83.335938" style="stroke:none;fill-rule:nonzero;fill:rgb(0%,0%,0%);fill-opacity:1;"/>
<path d="M 173.769531 88.597656 L 173.769531 96.65625 L 177.058594 96.65625 L 177.058594 80.558594 L 173.769531 80.558594 Z M 173.769531 88.597656" style="stroke:none;fill-rule:nonzero;fill:rgb(0%,0%,0%);fill-opacity:1;"/>
<path d="M 63.53125 82.214844 L 63.53125 83.648438 L 69.0625 83.648438 L 69.0625 96.65625 L 72.464844 96.65625 L 72.464844 83.648438 L 77.996094 83.648438 L 77.996094 80.796875 L 63.53125 80.796875 Z M 63.53125 82.214844" style="stroke:none;fill-rule:nonzero;fill:rgb(0%,0%,0%);fill-opacity:1;"/>
<path d="M 42.316406 87.109375 L 38.457031 90.992188 L 41.101562 91.046875 L 43.730469 91.121094 L 41.691406 96.527344 C 40.570312 99.511719 39.652344 101.976562 39.6875 101.976562 C 39.6875 101.992188 41.175781 100.539062 42.976562 98.753906 L 46.230469 95.535156 L 46.214844 89.390625 L 46.175781 83.242188 Z M 42.316406 87.109375" style="stroke:none;fill-rule:nonzero;fill:rgb(0%,0%,0%);fill-opacity:1;"/>
<path d="M 85.570312 84.585938 C 84.59375 84.84375 83.53125 85.671875 82.976562 86.59375 C 82.867188 86.777344 82.832031 86.648438 82.832031 85.820312 L 82.832031 84.84375 L 79.761719 84.84375 L 79.761719 96.65625 L 82.941406 96.65625 L 82.941406 93.730469 C 82.941406 90.660156 83.015625 89.921875 83.472656 89.003906 C 84.0625 87.824219 85.074219 87.292969 86.636719 87.382812 L 87.628906 87.421875 L 87.703125 86.539062 C 87.738281 86.023438 87.792969 85.433594 87.832031 85.195312 C 87.886719 84.84375 87.867188 84.734375 87.683594 84.679688 C 87.335938 84.53125 85.972656 84.496094 85.570312 84.585938 Z M 85.570312 84.585938" style="stroke:none;fill-rule:nonzero;fill:rgb(0%,0%,0%);fill-opacity:1;"/>
<path d="M 106.984375 84.660156 C 104.226562 85.269531 102.464844 87.625 102.464844 90.695312 C 102.480469 93.253906 103.601562 95.257812 105.605469 96.269531 C 107.867188 97.429688 110.917969 97.0625 112.628906 95.460938 C 113.089844 95.058594 113.96875 93.601562 113.859375 93.492188 C 113.804688 93.4375 111.03125 92.703125 111.011719 92.738281 C 110.992188 92.773438 110.828125 93.03125 110.660156 93.34375 C 110.09375 94.375 108.898438 94.816406 107.71875 94.46875 C 106.726562 94.171875 106.15625 93.402344 105.902344 92.019531 L 105.808594 91.414062 L 114.117188 91.414062 L 114.117188 90.769531 C 114.117188 89.003906 113.382812 86.996094 112.40625 85.984375 C 111.195312 84.769531 109.007812 84.21875 106.984375 84.660156 Z M 109.355469 86.980469 C 109.925781 87.238281 110.386719 87.808594 110.644531 88.523438 C 110.992188 89.554688 111.140625 89.5 108.34375 89.5 L 105.863281 89.5 L 105.9375 89.113281 C 106.066406 88.5625 106.527344 87.695312 106.839844 87.382812 C 107.5 86.757812 108.511719 86.59375 109.355469 86.980469 Z M 109.355469 86.980469" style="stroke:none;fill-rule:nonzero;fill:rgb(0%,0%,0%);fill-opacity:1;"/>
<path d="M 138.621094 84.660156 C 136.542969 85.140625 134.90625 86.703125 134.339844 88.765625 C 134.0625 89.757812 134.042969 91.5625 134.300781 92.535156 C 134.722656 94.171875 135.828125 95.589844 137.207031 96.269531 C 138.179688 96.769531 138.898438 96.914062 140.109375 96.914062 C 142.425781 96.933594 144.28125 95.941406 145.164062 94.265625 C 145.367188 93.859375 145.53125 93.53125 145.515625 93.492188 C 145.496094 93.492188 144.835938 93.289062 144.0625 93.089844 C 142.976562 92.8125 142.648438 92.757812 142.574219 92.867188 C 141.984375 93.933594 141.527344 94.339844 140.679688 94.523438 C 139.042969 94.910156 137.847656 93.859375 137.480469 91.800781 L 137.425781 91.414062 L 145.808594 91.414062 L 145.71875 90.382812 C 145.679688 89.8125 145.589844 89.113281 145.515625 88.800781 C 145.128906 87.199219 144.0625 85.726562 142.886719 85.140625 C 141.671875 84.53125 140.035156 84.347656 138.621094 84.660156 Z M 141.285156 87.164062 C 141.65625 87.402344 141.875 87.679688 142.132812 88.230469 C 142.316406 88.636719 142.464844 89.078125 142.464844 89.222656 L 142.464844 89.5 L 137.5 89.5 L 137.59375 89.113281 C 137.792969 88.082031 138.472656 87.179688 139.226562 86.886719 C 139.816406 86.667969 140.753906 86.796875 141.285156 87.164062 Z M 141.285156 87.164062" style="stroke:none;fill-rule:nonzero;fill:rgb(0%,0%,0%);fill-opacity:1;"/>
<path d="M 89.410156 88.324219 C 89.410156 93.492188 89.613281 94.671875 90.625 95.792969 C 91.230469 96.4375 91.820312 96.769531 92.71875 96.914062 C 94.429688 97.191406 96.03125 96.4375 97.078125 94.871094 C 97.28125 94.578125 97.28125 94.597656 97.28125 95.609375 L 97.296875 96.65625 L 100.347656 96.65625 L 100.347656 84.84375 L 97.207031 84.84375 L 97.132812 88.5625 C 97.09375 92.71875 97.058594 92.886719 96.324219 93.730469 C 95.808594 94.339844 95.257812 94.558594 94.449219 94.488281 C 93.785156 94.414062 93.34375 94.136719 92.996094 93.546875 C 92.777344 93.160156 92.757812 92.886719 92.71875 88.984375 L 92.703125 84.84375 L 89.410156 84.84375 Z M 89.410156 88.324219" style="stroke:none;fill-rule:nonzero;fill:rgb(0%,0%,0%);fill-opacity:1;"/>
<path d="M 146.726562 84.9375 C 146.746094 85.011719 147.738281 87.660156 148.933594 90.863281 L 151.101562 96.65625 L 153.050781 96.640625 L 154.980469 96.601562 L 157.132812 90.804688 C 158.308594 87.625 159.300781 84.992188 159.300781 84.9375 C 159.300781 84.882812 158.511719 84.84375 157.535156 84.84375 C 155.957031 84.84375 155.773438 84.863281 155.71875 85.046875 C 154.964844 87.640625 153.125 93.640625 153.070312 93.714844 C 153.015625 93.769531 152.371094 91.800781 151.636719 89.351562 L 150.277344 84.898438 L 148.472656 84.863281 C 147.5 84.863281 146.710938 84.882812 146.726562 84.9375 Z M 146.726562 84.9375" style="stroke:none;fill-rule:nonzero;fill:rgb(0%,0%,0%);fill-opacity:1;"/>
</g>
</svg>